<svg xmlns="http://www.w3.org/2000/svg" xmlns:xlink="http://www.w3.org/1999/xlink" width="662.167" height="539.104" viewBox="0 0 662.167 539.104"><defs><style>.a,.k{fill:none;}.b{fill:#a4d2fc;}.c{fill:#465cff;}.d,.o{fill:#fff;}.e{fill:#ffeb7d;}.f{clip-path:url(#a);}.g,.n{fill:#f9c126;}.h,.i{fill:#ffc3a9;}.h,.i,.k,.l{stroke:#e89589;stroke-width:1.391px;}.h,.k,.l{stroke-linecap:round;stroke-linejoin:round;}.i,.n{stroke-miterlimit:10;}.j{fill:#621cd1;}.l{fill:#e28584;}.m{fill:#ff5c76;}.n{stroke:#f9c126;stroke-width:0.348px;}.o{opacity:0.44;}</style><clipPath id="a"><path class="a" d="M336.383,208.273c-26.916-36.99-89.242-42.637-107.582-43.509v-.16s-.954,0-2.541.08c-1.667-.08-2.541-.08-2.541-.08v.16c-18.34.872-80.666,6.51-107.582,43.509-31.759,43.669-42.08,93.687-42.08,116.713s11.035,44.463,59.467,45.256c30.727.477,68.916.4,92.735.24,23.9.158,62.008.317,92.735-.24,48.512-.792,59.467-22.231,59.467-45.256S368.142,251.941,336.383,208.273Z" transform="translate(-74.058 -164.604)"/></clipPath></defs><g transform="translate(-5 -31.948)"><path class="b" d="M652.081,285.01H20.086A15.07,15.07,0,0,1,5,269.924H5a15.07,15.07,0,0,1,15.086-15.086H652.081a15.07,15.07,0,0,1,15.086,15.086h0a15.07,15.07,0,0,1-15.086,15.086Z" transform="translate(0 286.042)"/><path class="b" d="M403.932,80.629H202.426a12.787,12.787,0,0,0-12.787,12.787V267.294a4.93,4.93,0,0,0,8.9,2.936l20.007-27.153a12.787,12.787,0,0,1,10.323-5.24H404.021a12.773,12.773,0,0,0,12.787-12.787V93.413a12.894,12.894,0,0,0-12.876-12.784Z" transform="translate(236.953 62.474)"/><path class="c" d="M308.86,111.513H210.647a6.743,6.743,0,0,1-6.75-6.75h0a6.743,6.743,0,0,1,6.75-6.747H308.86a6.74,6.74,0,0,1,6.747,6.747h0A6.793,6.793,0,0,1,308.86,111.513Z" transform="translate(255.251 84.787)"/><path class="d" d="M341.122,143.5H228.378a6.74,6.74,0,0,1-6.747-6.747h0a6.743,6.743,0,0,1,6.747-6.75H341.122a6.743,6.743,0,0,1,6.747,6.75h0a6.74,6.74,0,0,1-6.747,6.747Z" transform="translate(278.01 125.841)"/><path class="c" d="M334.106,121.249H210.647a6.743,6.743,0,0,1-6.75-6.75h0a6.743,6.743,0,0,1,6.75-6.747h123.46a6.743,6.743,0,0,1,6.75,6.747h0a6.743,6.743,0,0,1-6.75,6.75Z" transform="translate(255.251 97.282)"/><path class="e" d="M336.383,208.273c-26.916-36.99-89.242-42.637-107.582-43.509v-.16s-.954,0-2.541.08c-1.667-.08-2.541-.08-2.541-.08v.16c-18.34.872-80.666,6.51-107.582,43.509-31.759,43.669-42.08,93.687-42.08,116.713s11.035,44.463,59.467,45.256c30.727.477,68.916.4,92.735.24,23.9.158,62.008.317,92.735-.24,48.512-.792,59.467-22.231,59.467-45.256S368.142,251.941,336.383,208.273Z" transform="translate(88.624 170.242)"/><g class="f" transform="translate(162.682 334.846)"><path class="g" d="M100.338,208.424c-1.427-.158-1.827,1.272-1.6,2.382" transform="translate(-42.46 -108.384)"/><path class="g" d="M104.164,207.268a4.529,4.529,0,0,0-1.429-.228c.317.08.635.08.952.16a5.453,5.453,0,0,0-6.59,2.222,5.736,5.736,0,0,0-.555,4.128A5.179,5.179,0,0,0,99,216.726a5.736,5.736,0,0,0,4.128.557,5.194,5.194,0,0,0,3.176-2.462c.158-.4.4-.874.555-1.272a3.909,3.909,0,0,0,.08-2.142,3.674,3.674,0,0,0-.635-1.987,9.2,9.2,0,0,0-1.112-1.349l-.715,5.48a.281.281,0,0,0,.16-.078c-.24.078-.557.228-.795.317a.475.475,0,0,1,.317-.08,3.24,3.24,0,0,0,2.382-3.176,3.333,3.333,0,0,0-.475-1.667,3.137,3.137,0,0,0-1.907-1.6Z" transform="translate(-45.411 -110.405)"/><path class="g" d="M114.816,222.787a4.313,4.313,0,0,0,3.176-1.349,4.8,4.8,0,0,0,1.349-3.176,4.318,4.318,0,0,0-1.349-3.174,4.8,4.8,0,0,0-3.176-1.352,4.32,4.32,0,0,0-3.176,1.352,4.8,4.8,0,0,0-1.349,3.174,4.318,4.318,0,0,0,1.349,3.176,4.8,4.8,0,0,0,3.176,1.35Z" transform="translate(-27.56 -101.551)"/><path class="g" d="M114.281,209.166a3.676,3.676,0,0,0,2.541-1.032,3.482,3.482,0,0,0,1.032-2.541,3.676,3.676,0,0,0-1.032-2.541,3.829,3.829,0,0,0-2.541-1.032,3.681,3.681,0,0,0-2.541,1.032,3.482,3.482,0,0,0-1.032,2.541,3.69,3.69,0,0,0,1.032,2.541,3.829,3.829,0,0,0,2.541,1.032Z" transform="translate(-27.025 -116.588)"/><path class="g" d="M103.331,189.64c-.24.16-.4.317-.635.477-.08-.16-.08-.317-.16-.477" transform="translate(-37.511 -132.475)"/><path class="g" d="M106.529,188.759h0a3.425,3.425,0,0,0-3.254-.228,3.653,3.653,0,0,0-1.192.715,3.269,3.269,0,0,0-.952,1.587v.08c-.08.317-.08.635-.16.952.08.317.08.635.16.952a4.028,4.028,0,0,0,.952,1.6,3.809,3.809,0,0,0,4.048.795,3.758,3.758,0,0,0,2.224-2.859,3.966,3.966,0,0,0-.228-1.907,5.281,5.281,0,0,0-1.6-1.667Z" transform="translate(-39.52 -134.292)"/><path class="g" d="M116.641,189.988c-.228.08-.395.08-.635.16a6.1,6.1,0,0,1-.952,2.222" transform="translate(-21.446 -132.028)"/><path class="g" d="M116.288,188.432a3.354,3.354,0,0,1-.557.4,5.635,5.635,0,0,0-1.984,2.3,4.608,4.608,0,0,0-.228,3.1v.158a4.8,4.8,0,0,0,3.882,3.425,5.178,5.178,0,0,0,2.461-.317,4.377,4.377,0,0,0,2.224-1.907c0-.08.08-.08.08-.16-1.827.715-3.573,1.429-5.4,2.224.16,0,.4.08.557.08a5.2,5.2,0,0,0,2.7,0,4.841,4.841,0,0,0,3.573-5.48,5.051,5.051,0,0,0-2.382-3.653,4.59,4.59,0,0,0-4.923-.158Z" transform="translate(-23.632 -134.837)"/><path class="g" d="M112.719,178.861a1.856,1.856,0,0,0-.795,1.6" transform="translate(-25.464 -146.308)"/><path class="g" d="M114.5,185.063a4.044,4.044,0,0,0,2.779-1.192,4.2,4.2,0,0,0,1.192-2.779,4.044,4.044,0,0,0-1.192-2.779,4.2,4.2,0,0,0-2.779-1.192,4.044,4.044,0,0,0-2.779,1.192,4.2,4.2,0,0,0-1.19,2.779,4.032,4.032,0,0,0,1.19,2.779,3.9,3.9,0,0,0,2.779,1.192Z" transform="translate(-27.247 -148.539)"/><path class="g" d="M129.606,188.492a2.382,2.382,0,1,0-2.382-2.382A2.381,2.381,0,0,0,129.606,188.492Z" transform="translate(-5.828 -140.06)"/><path class="g" d="M86.541,197.986a3.126,3.126,0,0,0,1.6,2.382" transform="translate(-58.038 -121.764)"/><path class="g" d="M89.843,207.164a5.765,5.765,0,0,0,4.128-1.747,6.268,6.268,0,0,0,1.747-4.128,5.768,5.768,0,0,0-1.747-4.131,6.111,6.111,0,0,0-4.128-1.747,5.772,5.772,0,0,0-4.128,1.747,6.272,6.272,0,0,0-1.747,4.131,5.756,5.756,0,0,0,1.747,4.128,6.1,6.1,0,0,0,4.128,1.747Z" transform="translate(-61.34 -125.067)"/><path class="g" d="M85.889,217.781a5.035,5.035,0,0,1-.557-.16,1.407,1.407,0,0,0-1.747,1.27,1.331,1.331,0,0,0,1.747,1.272c.16-.08.4-.08.557-.16a1.158,1.158,0,0,0,0-2.222Z" transform="translate(-61.832 -96.62)"/><path class="g" d="M98.114,240.37a5.21,5.21,0,0,0,2.7-.635,5.984,5.984,0,0,0,2.224-1.429,4.5,4.5,0,0,0,1.427-2.222,5.407,5.407,0,0,0,.637-2.7,6.966,6.966,0,0,0-2.055-4.921,7.263,7.263,0,0,0-4.923-2.066,5.216,5.216,0,0,0-2.7.637,5.936,5.936,0,0,0-2.222,1.429,4.489,4.489,0,0,0-1.429,2.222,5.4,5.4,0,0,0-.635,2.7,6.957,6.957,0,0,0,2.055,4.923,7.1,7.1,0,0,0,4.923,2.055Z" transform="translate(-52.144 -85.309)"/><path class="g" d="M79.455,234.092a2.9,2.9,0,0,0,2.859-2.859,2.955,2.955,0,0,0-2.859-2.856,2.9,2.9,0,0,0-2.859,2.856A2.952,2.952,0,0,0,79.455,234.092Z" transform="translate(-70.801 -82.762)"/><path class="g" d="M93,219.16a2.283,2.283,0,0,0-.228,1.27,3.048,3.048,0,0,0,.715,1.747,2.678,2.678,0,0,0,1.747.715,2.462,2.462,0,0,0,1.747-.715,2.674,2.674,0,0,0,.715-1.747,2.283,2.283,0,0,0-.228-1.27,3.169,3.169,0,0,0-.795-1.192,2.158,2.158,0,0,0-1.349-.475,2.569,2.569,0,0,0-1.112.317,2.756,2.756,0,0,0-1.192,1.349Z" transform="translate(-50.053 -96.73)"/><path class="g" d="M127.073,241.9a1.849,1.849,0,0,0-1.587-.795" transform="translate(-8.059 -66.431)"/><path class="g" d="M128.566,249.689a5.736,5.736,0,0,0,3.882-1.587,3.466,3.466,0,0,0,1.112-1.747,4.729,4.729,0,0,0,.477-2.144,5.743,5.743,0,0,0-1.6-3.882,5.525,5.525,0,0,0-3.882-1.587,5.74,5.74,0,0,0-3.882,1.587,3.481,3.481,0,0,0-1.112,1.747,4.729,4.729,0,0,0-.477,2.144,5.423,5.423,0,0,0,5.48,5.48Z" transform="translate(-11.139 -69.459)"/><path class="g" d="M147.147,225.027c-.08-.158-.08-.317-.16-.475-.228.158-.4.317-.635.475" transform="translate(18.719 -87.671)"/><path class="g" d="M149.563,233.06a5.708,5.708,0,0,0,3.811-1.6,5.345,5.345,0,0,0,1.587-3.811,5.535,5.535,0,0,0-1.587-3.811,5.409,5.409,0,0,0-9.22,3.811,5.546,5.546,0,0,0,1.6,3.811,5.864,5.864,0,0,0,3.811,1.6Z" transform="translate(15.898 -90.621)"/><path class="g" d="M148.187,210.5l-.795.792" transform="translate(20.054 -105.704)"/><path class="g" d="M148.592,210.024c-.158.16-.4.228-.555.4h1.747a2.167,2.167,0,0,0-2.7.317,2.135,2.135,0,1,0,3.019,3.019,2.167,2.167,0,0,0,.317-2.7V212.8c.158-.158.228-.4.4-.555a1.639,1.639,0,0,0-2.224-2.224Z" transform="translate(18.854 -106.571)"/><path class="g" d="M168.354,205.572a3.5,3.5,0,0,1-.228-.317,3.267,3.267,0,0,0-5.558,0c-.078.078-.158.228-.228.317a3.489,3.489,0,1,0,6.035,0Z" transform="translate(38.632 -114.423)"/><path class="g" d="M166.356,195.733a5.765,5.765,0,0,0,4.128-1.747,4.823,4.823,0,0,0,1.19-1.907,3.779,3.779,0,0,0,.477-2.3,5.763,5.763,0,0,0-1.747-4.128,6.11,6.11,0,0,0-4.128-1.747,5.763,5.763,0,0,0-4.128,1.747,4.8,4.8,0,0,0-1.192,1.9,3.8,3.8,0,0,0-.477,2.3,5.966,5.966,0,0,0,5.877,5.875Z" transform="translate(36.819 -139.837)"/><path class="g" d="M180.525,187.9a1.85,1.85,0,0,1-.795,1.6" transform="translate(61.554 -134.708)"/><path class="g" d="M178.372,189.364h0a6.191,6.191,0,0,1,.477-1.192c-.08.08-.08.16-.16.317,1.032-.795,2.144-1.667,3.176-2.461-.08,0-.08,0-.158.08a3.77,3.77,0,0,0-1.907,1.032,2.564,2.564,0,0,0-1.032,1.032,5.551,5.551,0,0,0-1.032,1.907c-.08.475-.158,1.032-.228,1.507.08.477.158,1.032.228,1.509a3.772,3.772,0,0,0,1.032,1.9,2.577,2.577,0,0,0,1.032,1.032,5.536,5.536,0,0,0,1.907,1.032,6.412,6.412,0,0,0,3.016,0,3.753,3.753,0,0,0,1.907-1.032A2.592,2.592,0,0,0,187.663,195a5.58,5.58,0,0,0,1.032-1.9c.078-.477.158-1.032.228-1.509-.08-.475-.16-1.032-.228-1.507a5.183,5.183,0,0,0-1.429-2.461l-.08-.08c.477.795.952,1.587,1.349,2.382a3.392,3.392,0,0,0-.08-.4c-.158-.4-.317-.795-.555-1.27a3.37,3.37,0,0,0-1.349-1.429,2.249,2.249,0,0,0-1.112-.635,4.3,4.3,0,0,0-1.984-.477,5.864,5.864,0,0,0-2.621.715,3.37,3.37,0,0,0-1.429,1.349,2.283,2.283,0,0,0-1.032,1.6Z" transform="translate(58.704 -137.517)"/><path class="g" d="M180.873,203.549c-.228.08-.4.08-.637.16-.078.228-.078.4-.158.635" transform="translate(62.001 -114.625)"/><path class="g" d="M182.033,202.715H181.4a1.913,1.913,0,0,0-1.747,1.032c-.078.078-.078.228-.158.317a5.211,5.211,0,0,0-.317,1.19A2.124,2.124,0,0,0,181,207.309a2.078,2.078,0,0,0,2.3-1.507,2.331,2.331,0,0,0,.16-1.032c-.32.555-.637,1.19-1.032,1.747.158-.08.4-.16.555-.228a1.92,1.92,0,0,0,.872-2.142,1.952,1.952,0,0,0-1.827-1.429Z" transform="translate(60.841 -115.695)"/><path class="g" d="M170.972,172.749h0a3.726,3.726,0,0,0-.952,1.6,3.562,3.562,0,0,0,.16,2.222,3.286,3.286,0,0,0,3.1,2.066,3.653,3.653,0,0,0,2.936-1.669,3.484,3.484,0,0,0-.555-4.128l-.08-.08a3.261,3.261,0,0,0-4.605,0Z" transform="translate(48.955 -155.361)"/><path class="g" d="M151.375,177.435c-.872.08-1.112.4-.715.875a23.15,23.15,0,0,0,2.3-.4" transform="translate(24.01 -148.138)"/><path class="g" d="M155.614,176.018h-.16c.637.4,1.349.792,1.986,1.19l-.08-.08a6.2,6.2,0,0,0-2.382-1.429,5.825,5.825,0,0,0-2.859,0,4.615,4.615,0,0,0-2.382,1.429,6.166,6.166,0,0,0-1.429,2.384,6.755,6.755,0,0,0,0,3.334c.228.477.4.952.635,1.429a4.4,4.4,0,0,0,1.509,1.667,5.528,5.528,0,0,0,3.653,1.27c.715-.078,1.349-.158,1.986-.228.475-.228.952-.4,1.427-.635a4.408,4.408,0,0,0,1.669-1.509,2.912,2.912,0,0,0,.792-1.349,3.9,3.9,0,0,0,.477-2.3,5.708,5.708,0,0,0-.795-3.019l-.952-1.19a5.023,5.023,0,0,0-1.907-1.272,3.284,3.284,0,0,0-1.507-.395,4.84,4.84,0,0,0-2.382.078.594.594,0,0,0-.317.08c.555-.08,1.032-.158,1.587-.228h-.16c-.555.08-1.032.158-1.587.228a4.4,4.4,0,0,0-2.055,1.112,2.968,2.968,0,0,0-1.112,1.112,4.756,4.756,0,0,0-1.112,2.055h0c2.3-1.272,4.605-2.621,6.907-3.882h-.158c.477.16.872.4,1.349.555h-.08l1.986,1.986a.078.078,0,0,0-.08-.08q-.836,3.1-1.667,6.192c.078,0,.078,0,.158-.08a8.345,8.345,0,0,0,.875-.715,8.084,8.084,0,0,1,.715-.872,5.158,5.158,0,0,0,.555-2.859,4.27,4.27,0,0,0-.872-2.144,3.181,3.181,0,0,0-2.224-1.827Z" transform="translate(20.963 -151.006)"/><path class="g" d="M143.707,198.585a3.466,3.466,0,0,0,1.507,1.987,2.893,2.893,0,0,0,3.176,0,3.733,3.733,0,0,0,1.509-1.986,3.174,3.174,0,0,0-3.016-3.968,3.105,3.105,0,0,0-3.176,3.968Z" transform="translate(15.165 -126.096)"/><path class="g" d="M127.65,205.288a1.192,1.192,0,0,0-.715,1.429c.24.078.477.078.715.158" transform="translate(-6.255 -112.393)"/><path class="g" d="M128.231,204.692c-.08.078-.228.078-.317.158.317-.08.715-.158,1.032-.228a2.7,2.7,0,0,0-1.9.4,3.2,3.2,0,0,0-1.192,1.349,2.438,2.438,0,0,0-.16,1.507,2.863,2.863,0,0,0,2.461,2.461,2.909,2.909,0,0,0,2.859-1.349,2.955,2.955,0,0,0,.4-1.429,3.263,3.263,0,0,0-.872-2.055v-.078c.158.158.317.4.475.555-.08-.08-.158-.228-.228-.317-.08.795-.228,1.667-.317,2.461l.228-.228a1.92,1.92,0,0,0,.557-1.427,1.955,1.955,0,0,0-.4-1.192,2,2,0,0,0-2.621-.555Z" transform="translate(-7.867 -113.464)"/><path class="g" d="M131.79,194.954a1,1,0,0,1-.08.477,1.63,1.63,0,0,1,1.667-1.27" transform="translate(-0.071 -126.674)"/><path class="g" d="M135.635,205.44a6.329,6.329,0,0,0,2.7-.557,6.229,6.229,0,0,0,3.653-3.653,5.167,5.167,0,0,0,.557-2.7,6.786,6.786,0,0,0-6.907-6.907,6.332,6.332,0,0,0-2.7.557,6.229,6.229,0,0,0-3.653,3.653,5.185,5.185,0,0,0-.557,2.7,7.037,7.037,0,0,0,1.987,4.923,7.725,7.725,0,0,0,4.923,1.987Z" transform="translate(-3.916 -129.933)"/><path class="g" d="M128.615,171.559c.08.228.08.4.16.635.228.08.4.08.635.158" transform="translate(-4.043 -155.678)"/><path class="g" d="M127.481,173.82a1.852,1.852,0,0,1,.158.635,2.872,2.872,0,0,0,3.425,1.984,2.74,2.74,0,0,0,1.667-1.27,3.327,3.327,0,0,0,.317-2.144c0-.228-.08-.4-.08-.635a2.674,2.674,0,0,0-1.27-1.667,3.4,3.4,0,0,0-2.144-.317,2.74,2.74,0,0,0-2.055,3.425Z" transform="translate(-5.608 -157.225)"/><path class="g" d="M171.333,236.183a2.283,2.283,0,0,0-2.224-1.747c-.078-.228-.078-.4-.158-.635" transform="translate(47.721 -75.801)"/><path class="g" d="M182.883,237.05a9.832,9.832,0,0,0-2.461-4.208c-.555-.477-1.192-.954-1.747-1.349a6.794,6.794,0,0,0-3.256-1.032,3.771,3.771,0,0,0-2.3,0,6.8,6.8,0,0,0-3.256,1.032,3.251,3.251,0,0,0-1.032.792,7.079,7.079,0,0,0-2.222,2.382,5.756,5.756,0,0,0-1.032,3.176,3.528,3.528,0,0,0,0,2.224,6.1,6.1,0,0,0,.158,1.192c.317.712.557,1.349.874,2.055.475.635.952,1.27,1.507,1.9A8.352,8.352,0,0,0,172,247.441a9.362,9.362,0,0,0,4.685,0,13.573,13.573,0,0,0,2.461-1.032c.555-.477,1.112-.874,1.667-1.349a6.622,6.622,0,0,0,1.747-2.7,3.927,3.927,0,0,0,.555-2.144,7.348,7.348,0,0,0-.228-3.174Z" transform="translate(43.158 -80.32)"/><path class="g" d="M189.268,231.839a2.74,2.74,0,1,0-2.74-2.74A2.74,2.74,0,0,0,189.268,231.839Z" transform="translate(70.278 -85.352)"/><path class="g" d="M203.219,225.957a1.562,1.562,0,0,1,.477-.875c-1.112-.158-1.509.875-2.055,1.667" transform="translate(89.673 -87.011)"/><path class="g" d="M202.993,222.565a9.449,9.449,0,0,0-2.939,2.939c-.228.635-.555,1.27-.792,1.9a6.648,6.648,0,0,0-.32,2.144c.715-1.747,1.509-3.573,2.224-5.32a9.231,9.231,0,0,0-1.984,3.425,7.777,7.777,0,0,0,0,4.048,8.284,8.284,0,0,0,3.425,4.446,8.089,8.089,0,0,0,1.9.795l-5.318-5.32a7.823,7.823,0,0,0,2.144,3.653c.555.4,1.11.872,1.6,1.269.635.228,1.27.555,1.907.795a19.785,19.785,0,0,1,2.142.317,20.4,20.4,0,0,0,2.144-.317c.635-.228,1.272-.557,1.907-.795.555-.4,1.112-.872,1.587-1.27.4-.557.875-1.112,1.272-1.6a6.75,6.75,0,0,0,.952-3.016,4.924,4.924,0,0,0,0-2.144,3.843,3.843,0,0,0-.557-2.055,3.539,3.539,0,0,0-1.032-1.747,4.087,4.087,0,0,0-1.427-1.429,3.948,3.948,0,0,0-1.747-1.032,3.669,3.669,0,0,0-2.055-.555,4.854,4.854,0,0,0-2.144,0,5.937,5.937,0,0,0-2.859.872Z" transform="translate(86.173 -91.482)"/><path class="g" d="M190.857,212.242c.08.24.08.4.16.635.228.08.4.08.635.16" transform="translate(75.834 -103.469)"/><path class="g" d="M190.818,212.031l.228-.228a2.74,2.74,0,0,0-.952,3.733c.078.078.158.228.228.317a3.254,3.254,0,0,0,3.1,1.507,2.968,2.968,0,0,0,2.541-2.222,3.267,3.267,0,0,0-.795-3.019,3.117,3.117,0,0,0-3.731-.475.621.621,0,0,1-.317.158c.475-.158.952-.228,1.35-.4h-.16c.4.08.715.228,1.112.317h-.08a2.055,2.055,0,0,0-1.349-.228,1.676,1.676,0,0,0-1.19.557Z" transform="translate(74.373 -104.765)"/><path class="g" d="M194.527,197.445a7.355,7.355,0,0,0,2.3-.158c-.158-1.112-2.936-.635-3.882-.635" transform="translate(78.516 -123.606)"/><path class="g" d="M191.819,202.661c.555,2.859,3.256,4.128,5.638,5a6.708,6.708,0,0,0,5.24-.715,7.649,7.649,0,0,0,3.176-4.048,7.1,7.1,0,0,0-1.747-6.987,8.133,8.133,0,0,0-5.866-2.313,7.62,7.62,0,0,0-3.968,1.032,6.621,6.621,0,0,0,0,11.435,9.323,9.323,0,0,0,2.461.952c-.557-.228-1.112-.477-1.6-.715.16.08.228.158.317.158-.475-.4-.952-.715-1.427-1.11l.158.158c-.4-.475-.715-.952-1.112-1.429.228.317.317.477.635.874a7.643,7.643,0,0,0,2.055,1.827c-.475-.4-.952-.712-1.427-1.11l.078.078v-9.686a.6.6,0,0,1-.317.317c.477-.317.875-.715,1.349-1.032a9.165,9.165,0,0,0-2.055,1.509,6.339,6.339,0,0,0-1.6,5.8Z" transform="translate(76.064 -127.394)"/><path class="g" d="M169.221,223.734a3.672,3.672,0,0,0,2.541-1.032,3.473,3.473,0,0,0,1.032-2.541,3.671,3.671,0,0,0-1.032-2.539,3.825,3.825,0,0,0-2.541-1.032,3.671,3.671,0,0,0-2.539,1.032,3.475,3.475,0,0,0-1.034,2.539,3.674,3.674,0,0,0,1.034,2.541A3.818,3.818,0,0,0,169.221,223.734Z" transform="translate(43.481 -97.89)"/><path class="g" d="M190.7,258.671a5.772,5.772,0,0,0,4.128-1.747,4.818,4.818,0,0,0,1.192-1.907,3.781,3.781,0,0,0,.475-2.3,5.763,5.763,0,0,0-1.747-4.131,6.1,6.1,0,0,0-4.128-1.744,5.772,5.772,0,0,0-4.128,1.744,4.838,4.838,0,0,0-1.19,1.907,3.781,3.781,0,0,0-.477,2.3,5.966,5.966,0,0,0,5.875,5.877Z" transform="translate(68.057 -59.067)"/><path class="g" d="M197.116,236.93c.228.08.4.08.635.16.08.228.08.4.16.635" transform="translate(83.866 -71.786)"/><path class="g" d="M198.594,238.816c.08,0,.08-.08.16-.08h0l-.952-.228c.158.16.317.228.4.4a.648.648,0,0,0,1.032-.228c.08-.16.16-.4.24-.557a.87.87,0,0,0-.24-.952c-.158-.16-.228-.317-.4-.4a1.357,1.357,0,1,0-1.747,2.064,1.674,1.674,0,0,0,1.507,0Z" transform="translate(83.103 -72.48)"/><path class="g" d="M211.327,251.052a3.49,3.49,0,0,1-.228-.317,8.008,8.008,0,0,0-13.816,0,3.619,3.619,0,0,0-.228.317,8.535,8.535,0,0,0-1.112,4.208,8.779,8.779,0,0,0,1.112,4.208,8.247,8.247,0,0,0,14.291,0,8.548,8.548,0,0,0,1.112-4.208,8.765,8.765,0,0,0-1.112-4.208Z" transform="translate(82.36 -59.149)"/><path class="g" d="M207.014,242.018a2.144,2.144,0,1,0-2.144-2.144A2.144,2.144,0,0,0,207.014,242.018Z" transform="translate(93.817 -70.759)"/><path class="g" d="M179.592,218.16a1.427,1.427,0,0,0-1.6,1.6" transform="translate(59.311 -95.889)"/><path class="g" d="M180.689,215.7a9.344,9.344,0,0,0-1.907.715l-1.192.952a4.839,4.839,0,0,0-1.19,1.907,3.3,3.3,0,0,0-.4,1.509,4.815,4.815,0,0,0,.08,2.382,7.306,7.306,0,0,0,1.507,2.619,4.845,4.845,0,0,0,1.907,1.192,3.781,3.781,0,0,0,2.3.475h.32c-.557-.078-1.034-.158-1.6-.228a.288.288,0,0,1,.228.08,5.948,5.948,0,0,0,5.8-1.509,6.085,6.085,0,0,0,1.747-4.208,5.95,5.95,0,0,0-1.747-4.208,5.816,5.816,0,0,0-2.621-1.507,5.729,5.729,0,0,0-3.254-.16Z" transform="translate(56.627 -99.227)"/><path class="g" d="M167.657,250.939l-.792-.795" transform="translate(45.044 -54.828)"/><path class="g" d="M173.324,250.093l-.477-.477a4.843,4.843,0,0,0-3.254-1.349,4.639,4.639,0,0,0-3.256,1.349,4.5,4.5,0,0,0-1.35,3.256,5,5,0,0,0,1.35,3.256l.477.475a4.832,4.832,0,0,0,3.254,1.349,4.629,4.629,0,0,0,3.256-1.35,4.489,4.489,0,0,0,1.349-3.254,5.008,5.008,0,0,0-1.349-3.256Z" transform="translate(42.634 -57.238)"/><path class="g" d="M86.036,256.784a7.5,7.5,0,0,0,5.083-2.055,7.946,7.946,0,0,0,2.144-5.08,7.186,7.186,0,0,0-12.227-5.087,7.914,7.914,0,0,0-2.144,5.083,7.049,7.049,0,0,0,7.145,7.145Z" transform="translate(-67.856 -64.644)"/><path class="g" d="M100.025,259.2a3.671,3.671,0,0,0,2.539-1.032,3.473,3.473,0,0,0,1.032-2.541,3.669,3.669,0,0,0-1.032-2.541,3.823,3.823,0,0,0-2.539-1.032,3.672,3.672,0,0,0-2.541,1.032,3.482,3.482,0,0,0-1.032,2.541,3.676,3.676,0,0,0,1.032,2.541,3.824,3.824,0,0,0,2.541,1.032Z" transform="translate(-45.321 -52.374)"/><path class="g" d="M107.047,242.594c0-.08.08-.24.08-.317a3.548,3.548,0,0,0-.952-3.573.078.078,0,0,1-.08-.08,3.829,3.829,0,0,0-2.541-1.032c-.317.08-.635.08-.952.16a3.288,3.288,0,0,0-1.6.952.078.078,0,0,0-.078.08,3.542,3.542,0,0,0-.954,3.571c0,.08.08.24.08.32a3.573,3.573,0,0,0,3.425,2.619,3.786,3.786,0,0,0,3.573-2.7Z" transform="translate(-40.99 -70.937)"/><path class="g" d="M115.815,231.583c.08.08.08.16.16.228a7.974,7.974,0,0,0,2.7,2.7,7.551,7.551,0,0,0,7.622,0,7.991,7.991,0,0,0,2.7-2.7c.078-.078.078-.158.158-.228a7.32,7.32,0,0,0,1.032-3.882,7.535,7.535,0,0,0-1.032-3.882,7.74,7.74,0,0,0-6.6-3.82,7.569,7.569,0,0,0-6.59,3.811,7.325,7.325,0,0,0-1.032,3.882,6.133,6.133,0,0,0,.872,3.882Z" transform="translate(-21.645 -93.513)"/><path class="g" d="M155.347,170.014A3.019,3.019,0,1,0,152.33,167a2.968,2.968,0,0,0,3.016,3.016Z" transform="translate(26.391 -165.409)"/><path class="g" d="M98.713,178.809c-.08-1.27,1.27-1.429,1.6-2.382" transform="translate(-42.422 -149.431)"/><path class="g" d="M111.33,180.252v-.158c.08.715.16,1.429.317,2.222V182a19.275,19.275,0,0,1-.317,2.144v-.08a20.456,20.456,0,0,1,.317-2.142,5.647,5.647,0,0,0-.715-3.176,4.179,4.179,0,0,0-1.032-1.827,6.649,6.649,0,0,0-2.3-2.144h0c1.192,2.939,2.382,5.955,3.653,8.894.08-.477.16-.795.228-1.352a5.886,5.886,0,0,0-.16-3.1c-.228-.635-.555-1.27-.792-1.827a6.569,6.569,0,0,0-1.827-2.055,5.023,5.023,0,0,0-1.907-1.112,5.585,5.585,0,0,0-3.016-.635c-.715.078-1.349.158-2.055.228a13.359,13.359,0,0,0-1.907.795c-.078.078-.158.078-.228.158,2.055-.228,4.048-.555,6.112-.795h-.078a19.264,19.264,0,0,1-2.144-.317,5.686,5.686,0,0,0-3.176.715,4.236,4.236,0,0,0-1.827,1.032,6.677,6.677,0,0,0-2.144,2.3,10.576,10.576,0,0,0-1.27,4.683,8.631,8.631,0,0,0,2.382,5.875,8.131,8.131,0,0,0,3.653,2.144,6.528,6.528,0,0,0,3.254.16,7.079,7.079,0,0,0,3.1-.952,6,6,0,0,0,2.3-2.144,7.288,7.288,0,0,0,1.507-2.779,7.708,7.708,0,0,0,.08-4.448Z" transform="translate(-47.1 -153.089)"/><path class="g" d="M137.8,254.317a1.2,1.2,0,0,0-.872.475c0-.158.078-.317.078-.475" transform="translate(6.623 -49.472)"/><path class="g" d="M144.315,256.011c0-.08,0-.08-.08-.16a5.745,5.745,0,0,0-1.19-2.144l-.952-.715a3.5,3.5,0,0,0-1.747-.555,3.407,3.407,0,0,0-1.272,0,2.069,2.069,0,0,0-1.19.317,1.765,1.765,0,0,0-1.032.635,3.461,3.461,0,0,0-1.272,1.349c0,.08-.078.08-.078.16a4.758,4.758,0,0,0,0,4.923,5.236,5.236,0,0,0,1.747,1.747,3.77,3.77,0,0,0,1.827.555,3.882,3.882,0,0,0,1.907-.078,4.993,4.993,0,0,0,2.144-1.272,5.06,5.06,0,0,0,1.19-4.763Z" transform="translate(3.917 -51.961)"/></g><path class="h" d="M158.558,150.626c-.477.715.317,36.839.795,47.95.228,4.526-.08,10.006-2.859,12.862a13.809,13.809,0,0,1-15.4,3.019c-4.366-1.747-7.225-6.907-7.225-12.7l.4-44.621" transform="translate(165.378 152.303)"/><path class="i" d="M114.931,120.028S102.624,225.148,169.317,228.8c59.944,0,58.515-93.767,44.938-127.828" transform="translate(139.93 88.579)"/><ellipse class="j" cx="5.955" cy="4.763" rx="5.955" ry="4.763" transform="translate(322.193 258.552) rotate(-77.144)"/><path class="k" d="M137.482,132.44s.317,10.878,1.192,18.182c.4,3.176,4.6-1.349,4.6-1.349" transform="translate(170.018 128.965)"/><path class="l" d="M157.741,125.248a12.369,12.369,0,0,0-11.67-1.827" transform="translate(181.041 116.468)"/><path class="l" d="M134.827,122.7s-7.779,1.112-10.558,4.366" transform="translate(153.062 116.465)"/><path class="k" d="M141.8,147.392a4.366,4.366,0,0,1-3.968.795" transform="translate(170.465 148.153)"/><ellipse class="j" cx="4.763" cy="5.955" rx="4.763" ry="5.955" transform="matrix(0.924, -0.384, 0.384, 0.924, 279.446, 250.728)"/><path class="m" d="M111.577,149.654c21.436,11.91,95.274,10.321,112.742.792-5.558-38.9-19.054-60.339-57.958-59.547S118.722,111.543,111.577,149.654Z" transform="translate(136.774 75.626)"/><ellipse class="m" cx="37.714" cy="30.964" rx="37.714" ry="30.964" transform="translate(301.546 110.154)"/><path class="j" d="M261.513,170.33a23.267,23.267,0,0,0-11.433-7.145c-2.3-.637-2.3-8.179-2.3-12.15a38.6,38.6,0,0,0-.16-4.683,85.207,85.207,0,0,0-3.882-16.668,67.665,67.665,0,0,0-15.721-25.407,59.565,59.565,0,0,0-95.117,13.5,89.856,89.856,0,0,0-10.558,34.06c-.16,1.272-.16,2.541-.24,3.811a47.24,47.24,0,0,1-.4,4.923c-.395,2.055-1.032,2.382-3.176,3.176a4.823,4.823,0,0,0-.952.4,23.856,23.856,0,0,0-11.115,8.814c-7.154,10.8-7.393,31.348,3.007,40.8a25.279,25.279,0,0,0,16.6,5.638,23.181,23.181,0,0,0,10.083-2.144c5.48-2.7,2.859-10.876.952-16.91-.475-1.429-.872-2.779-1.112-3.811a189.9,189.9,0,0,1-3.731-22.39,66.4,66.4,0,0,1,6.352-34.615c9.209-19.771,26.836-32.236,45.97-32.553,18.657-.228,36.442,11.275,45.336,29.377a79.307,79.307,0,0,1,7.535,37.791,148.609,148.609,0,0,1-4.526,26.121l-.08.4c-.228,1.112-.635,2.224-.952,3.336-1.112,3.571-2.3,7.382-.635,10.241a7.613,7.613,0,0,0,5.16,3.425c10.878,2.621,20.564.16,25.884-6.43C270.8,200.9,270.327,180.573,261.513,170.33Z" transform="translate(123.637 69.796)"/><path class="c" d="M309.5,261.8H93.539a6.1,6.1,0,0,1-5.955-6.192h0a6.165,6.165,0,0,1,5.955-6.192H309.5a6.1,6.1,0,0,1,5.955,6.192h0A6.1,6.1,0,0,1,309.5,261.8Z" transform="translate(105.982 279.081)"/><path class="c" d="M297.472,333.158H115.1a9.11,9.11,0,0,1-8.973-7.384l-23.422-121.4A9.133,9.133,0,0,1,91.678,193.5H316.766a9.133,9.133,0,0,1,9.051,10.56l-19.294,121.4A9.2,9.2,0,0,1,297.472,333.158Z" transform="translate(99.507 207.325)"/><path class="j" d="M352.375,268.448H229.787a6.642,6.642,0,0,1-6.592-6.67V250.9a6.592,6.592,0,0,1,6.592-6.667H352.455a6.642,6.642,0,0,1,6.59,6.667v10.878A6.763,6.763,0,0,1,352.375,268.448Z" transform="translate(280.017 272.432)"/><path class="n" d="M336.339,253.2H222.483a6.574,6.574,0,0,1-6.59-6.59v-2.779a6.576,6.576,0,0,1,6.59-6.592H336.421a6.576,6.576,0,0,1,6.592,6.592v2.779a6.7,6.7,0,0,1-6.674,6.59Z" transform="translate(270.646 263.462)"/><circle class="o" cx="13.894" cy="13.894" r="13.894" transform="translate(291.225 456.324)"/><path class="m" d="M97.884,225.456H51.913a8.33,8.33,0,0,0-8.257,9.289l.792,7.622c-11.59.635-20.881,9.528-20.881,20.246,0,11.275,10.006,20.322,22.233,20.322,1.032,0,1.984-.08,2.936-.16l.228,2.3a8.4,8.4,0,0,0,8.259,7.462H93.041a8.293,8.293,0,0,0,8.257-7.617l4.772-50.416a8.156,8.156,0,0,0-8.186-9.051ZM45.878,275c-7.859,0-14.291-5.558-14.291-12.385,0-6.67,6.115-12.147,13.737-12.385l2.619,24.612a16.681,16.681,0,0,1-2.064.151Z" transform="translate(23.829 248.335)"/><path class="b" d="M21.61,31.948h181.66a12.787,12.787,0,0,1,12.787,12.787V194.793a4.927,4.927,0,0,1-8.891,2.939l-20.013-27.156a12.787,12.787,0,0,0-10.321-5.252H21.61A12.787,12.787,0,0,1,8.823,152.538V44.732A12.786,12.786,0,0,1,21.607,31.948Z" transform="translate(4.906 0)"/><path class="c" d="M102.59,50.725h-77.8a6.743,6.743,0,0,0-6.747,6.75h0a6.743,6.743,0,0,0,6.747,6.75h77.8a6.745,6.745,0,0,0,6.75-6.75h0a6.745,6.745,0,0,0-6.75-6.75Z" transform="translate(16.741 24.097)"/><path class="d" d="M39.739,78.3H152.483a6.74,6.74,0,0,0,6.747-6.747h0a6.743,6.743,0,0,0-6.747-6.75H39.739a6.743,6.743,0,0,0-6.747,6.75h0A6.74,6.74,0,0,0,39.739,78.3Z" transform="translate(35.923 42.17)"/><path class="c" d="M67.655,40.989H24.792a6.743,6.743,0,0,0-6.747,6.75v.4a6.74,6.74,0,0,0,6.747,6.747H67.655a6.743,6.743,0,0,0,6.75-6.747v-.4a6.745,6.745,0,0,0-6.75-6.75Z" transform="translate(16.741 11.603)"/><path class="d" d="M27.571,88.737H168.1a6.743,6.743,0,0,0,6.747-6.75h0A6.74,6.74,0,0,0,168.1,75.24H27.571a6.743,6.743,0,0,0-6.75,6.747h0a6.745,6.745,0,0,0,6.75,6.75Z" transform="translate(20.304 55.558)"/></g></svg>